<svg xmlns="http://www.w3.org/2000/svg" viewBox="0 0 1024 1024" width="1024" height="1024"><path d="M907.040 276c-4.878-11.826-16.316-19.998-29.664-19.998-8.382 0-16.012 3.223-21.717 8.498l0.021-0.019-161.2 148.76-68.92-14.8-14.8-68.92 148.76-161.2c5.255-5.684 8.478-13.314 8.478-21.696 0-13.347-8.172-24.786-19.785-29.586l-0.213-0.078c-31.956-13.295-69.076-21.017-108-21.017-159.058 0-288 128.942-288 288 0 0.020 0 0.040 0 0.060l-0-0.003c-0 0.112-0 0.244-0 0.376 0 41.729 8.833 81.394 24.731 117.229l-0.731-1.845-240.84 208.24c-0.6 0.48-1.16 1.040-1.72 1.56-23.166 23.166-37.495 55.17-37.495 90.52 0 70.701 57.314 128.015 128.015 128.015 35.35 0 67.354-14.329 90.52-37.495l-0 0c0.52-0.52 1.080-1.12 1.56-1.68l208.2-240.92c34.079 15.348 73.875 24.289 115.76 24.289 159.058 0 288-128.942 288-288 0-0.102-0-0.203-0-0.305l0 0.016c0-0.143 0-0.313 0-0.482 0-38.753-7.701-75.708-21.657-109.417l0.697 1.899zM640 608c-39.745-0.056-77.055-10.429-109.411-28.583l1.131 0.583c-4.462-2.511-9.795-3.99-15.474-3.99-9.652 0-18.305 4.273-24.173 11.031l-0.034 0.039-223.6 258.96c-11.453 10.897-26.984 17.601-44.081 17.601-35.346 0-64-28.654-64-64 0-17.097 6.704-32.628 17.627-44.108l-0.025 0.027 258.76-223.56c6.806-5.901 11.085-14.56 11.085-24.219 0-5.689-1.485-11.032-4.088-15.662l0.083 0.161c-17.6-31.252-27.968-68.608-27.968-108.386 0-123.712 100.288-224 224-224 13.214 0 26.161 1.144 38.748 3.339l-1.34-0.193-124.8 135.24c-5.251 5.683-8.472 13.31-8.472 21.689 0 2.377 0.259 4.694 0.751 6.923l-0.039-0.212 22.64 105.32c2.715 12.316 12.244 21.845 24.348 24.521l0.212 0.039 105.4 22.64c2.017 0.452 4.334 0.712 6.711 0.712 8.379 0 16.006-3.221 21.711-8.491l-0.022 0.020 135.24-124.8c1.968 11.16 3.094 24.008 3.094 37.12 0 123.765-100.267 224.111-224.001 224.24l-0.013 0z" fill="black" /></svg>